<mxfile host="65bd71144e">
    <diagram id="0uSlt06-4vr5np38aqc7" name="ページ1">
        <mxGraphModel dx="5318" dy="1838" grid="1" gridSize="10" guides="1" tooltips="1" connect="1" arrows="1" fold="1" page="1" pageScale="1" pageWidth="827" pageHeight="1169" math="0" shadow="0">
            <root>
                <mxCell id="0"/>
                <mxCell id="1" parent="0"/>
                <mxCell id="98" value="" style="rounded=0;whiteSpace=wrap;html=1;fillColor=default;flipH=0;" parent="1" vertex="1">
                    <mxGeometry x="680" y="2680" width="1350" height="750" as="geometry"/>
                </mxCell>
                <mxCell id="127" value="" style="rounded=0;whiteSpace=wrap;html=1;dashed=1;" parent="1" vertex="1">
                    <mxGeometry x="1400" y="3130" width="540" height="200" as="geometry"/>
                </mxCell>
                <mxCell id="52" value="" style="shape=parallelogram;perimeter=parallelogramPerimeter;whiteSpace=wrap;html=1;fixedSize=1;flipV=0;flipH=0;direction=south;size=630;" parent="1" vertex="1">
                    <mxGeometry x="110" y="1050" width="360" height="670" as="geometry"/>
                </mxCell>
                <mxCell id="46" value="" style="shape=parallelogram;perimeter=parallelogramPerimeter;whiteSpace=wrap;html=1;fixedSize=1;size=120;" parent="1" vertex="1">
                    <mxGeometry x="20" y="1480" width="130" height="200" as="geometry"/>
                </mxCell>
                <mxCell id="49" value="" style="rounded=0;whiteSpace=wrap;html=1;" parent="1" vertex="1">
                    <mxGeometry x="140" y="1260" width="10" height="220" as="geometry"/>
                </mxCell>
                <mxCell id="39" value="" style="rounded=0;whiteSpace=wrap;html=1;" parent="1" vertex="1">
                    <mxGeometry x="-100" y="1729" width="40" height="90" as="geometry"/>
                </mxCell>
                <mxCell id="37" value="" style="rounded=0;whiteSpace=wrap;html=1;" parent="1" vertex="1">
                    <mxGeometry x="-20" y="1729" width="40" height="90" as="geometry"/>
                </mxCell>
                <mxCell id="2" value="" style="rounded=0;whiteSpace=wrap;html=1;" parent="1" vertex="1">
                    <mxGeometry x="-110" y="1771" width="20" height="700" as="geometry"/>
                </mxCell>
                <mxCell id="3" value="" style="rounded=0;whiteSpace=wrap;html=1;" parent="1" vertex="1">
                    <mxGeometry x="-110" y="1750" width="580" height="21" as="geometry"/>
                </mxCell>
                <mxCell id="4" value="" style="shape=card;whiteSpace=wrap;html=1;size=20;" parent="1" vertex="1">
                    <mxGeometry x="-180" y="1790" width="80" height="30" as="geometry"/>
                </mxCell>
                <mxCell id="5" value="" style="shape=manualInput;whiteSpace=wrap;html=1;size=13;" parent="1" vertex="1">
                    <mxGeometry x="-100" y="1770" width="110" height="50" as="geometry"/>
                </mxCell>
                <mxCell id="6" value="" style="rounded=0;whiteSpace=wrap;html=1;" parent="1" vertex="1">
                    <mxGeometry x="-180" y="1820" width="200" height="10" as="geometry"/>
                </mxCell>
                <mxCell id="7" value="" style="rounded=0;whiteSpace=wrap;html=1;" parent="1" vertex="1">
                    <mxGeometry x="450" y="1771" width="20" height="700" as="geometry"/>
                </mxCell>
                <mxCell id="8" value="" style="rounded=0;whiteSpace=wrap;html=1;" parent="1" vertex="1">
                    <mxGeometry x="20" y="1771" width="20" height="700" as="geometry"/>
                </mxCell>
                <mxCell id="9" value="" style="rounded=0;whiteSpace=wrap;html=1;" parent="1" vertex="1">
                    <mxGeometry x="-110" y="1730" width="580" height="20" as="geometry"/>
                </mxCell>
                <mxCell id="10" value="" style="rounded=0;whiteSpace=wrap;html=1;" parent="1" vertex="1">
                    <mxGeometry x="-280" y="1720" width="750" height="10" as="geometry"/>
                </mxCell>
                <mxCell id="11" value="" style="rounded=0;whiteSpace=wrap;html=1;" parent="1" vertex="1">
                    <mxGeometry x="-960" y="2019" width="590" height="450" as="geometry"/>
                </mxCell>
                <mxCell id="12" value="" style="rounded=0;whiteSpace=wrap;html=1;" parent="1" vertex="1">
                    <mxGeometry x="-960" y="1419" width="120" height="600" as="geometry"/>
                </mxCell>
                <mxCell id="16" value="" style="ellipse;whiteSpace=wrap;html=1;aspect=fixed;fillColor=default;" parent="1" vertex="1">
                    <mxGeometry x="-920" y="1179" width="300" height="300" as="geometry"/>
                </mxCell>
                <mxCell id="17" value="" style="shape=parallelogram;perimeter=parallelogramPerimeter;whiteSpace=wrap;html=1;fixedSize=1;fillColor=default;flipH=1;size=80;" parent="1" vertex="1">
                    <mxGeometry x="-840" y="1479" width="230" height="540" as="geometry"/>
                </mxCell>
                <mxCell id="18" value="" style="ellipse;whiteSpace=wrap;html=1;aspect=fixed;fillColor=default;" parent="1" vertex="1">
                    <mxGeometry x="-730" y="1284" width="80" height="80" as="geometry"/>
                </mxCell>
                <mxCell id="30" value="" style="shape=or;whiteSpace=wrap;html=1;" parent="1" vertex="1">
                    <mxGeometry x="10" y="1799" width="10" height="20" as="geometry"/>
                </mxCell>
                <mxCell id="31" value="" style="endArrow=none;html=1;" parent="1" edge="1">
                    <mxGeometry width="50" height="50" relative="1" as="geometry">
                        <mxPoint x="-30.67" y="1765" as="sourcePoint"/>
                        <mxPoint x="-30.67" y="1715" as="targetPoint"/>
                    </mxGeometry>
                </mxCell>
                <mxCell id="40" value="" style="rounded=0;whiteSpace=wrap;html=1;" parent="1" vertex="1">
                    <mxGeometry x="1400" y="1870" width="540" height="20" as="geometry"/>
                </mxCell>
                <mxCell id="41" value="" style="rounded=0;whiteSpace=wrap;html=1;" parent="1" vertex="1">
                    <mxGeometry x="110" y="1640" width="220" height="10" as="geometry"/>
                </mxCell>
                <mxCell id="42" value="" style="rounded=0;whiteSpace=wrap;html=1;" parent="1" vertex="1">
                    <mxGeometry x="290" y="1650" width="40" height="70" as="geometry"/>
                </mxCell>
                <mxCell id="43" value="" style="rounded=0;whiteSpace=wrap;html=1;" parent="1" vertex="1">
                    <mxGeometry x="110" y="1650" width="40" height="70" as="geometry"/>
                </mxCell>
                <mxCell id="44" value="" style="shape=parallelogram;perimeter=parallelogramPerimeter;whiteSpace=wrap;html=1;fixedSize=1;fillColor=default;flipH=1;" parent="1" vertex="1">
                    <mxGeometry x="191.25" y="1520" width="40" height="120" as="geometry"/>
                </mxCell>
                <mxCell id="45" value="" style="shape=parallelogram;perimeter=parallelogramPerimeter;whiteSpace=wrap;html=1;fixedSize=1;fillColor=default;flipH=1;" parent="1" vertex="1">
                    <mxGeometry x="140" y="1240" width="52.5" height="310" as="geometry"/>
                </mxCell>
                <mxCell id="50" value="" style="shape=parallelogram;perimeter=parallelogramPerimeter;whiteSpace=wrap;html=1;fixedSize=1;fillColor=default;flipH=1;size=42.5;" parent="1" vertex="1">
                    <mxGeometry x="67.5" y="940" width="72.5" height="310" as="geometry"/>
                </mxCell>
                <mxCell id="53" value="" style="rounded=0;whiteSpace=wrap;html=1;" parent="1" vertex="1">
                    <mxGeometry x="470" y="1639.5" width="20" height="159" as="geometry"/>
                </mxCell>
                <mxCell id="55" value="" style="rounded=0;whiteSpace=wrap;html=1;fillColor=default;flipH=0;" parent="1" vertex="1">
                    <mxGeometry x="680" y="1730" width="1350" height="12" as="geometry"/>
                </mxCell>
                <mxCell id="56" value="" style="rounded=0;whiteSpace=wrap;html=1;fillColor=default;flipH=0;" parent="1" vertex="1">
                    <mxGeometry x="680" y="1743" width="1100" height="20" as="geometry"/>
                </mxCell>
                <mxCell id="57" value="" style="rounded=0;whiteSpace=wrap;html=1;fillColor=default;flipH=0;" parent="1" vertex="1">
                    <mxGeometry x="680" y="1763" width="1100" height="19" as="geometry"/>
                </mxCell>
                <mxCell id="58" value="" style="rounded=0;whiteSpace=wrap;html=1;flipH=0;" parent="1" vertex="1">
                    <mxGeometry x="1760" y="1782" width="20" height="700" as="geometry"/>
                </mxCell>
                <mxCell id="59" value="" style="rounded=0;whiteSpace=wrap;html=1;flipH=0;" parent="1" vertex="1">
                    <mxGeometry x="1370" y="2032" width="500" height="450" as="geometry"/>
                </mxCell>
                <mxCell id="68" value="" style="rounded=0;whiteSpace=wrap;html=1;" parent="1" vertex="1">
                    <mxGeometry x="1000" y="1782" width="20" height="698" as="geometry"/>
                </mxCell>
                <mxCell id="69" value="" style="rounded=0;whiteSpace=wrap;html=1;" parent="1" vertex="1">
                    <mxGeometry x="680" y="1782" width="20" height="697" as="geometry"/>
                </mxCell>
                <mxCell id="70" value="" style="rounded=0;whiteSpace=wrap;html=1;flipH=0;" parent="1" vertex="1">
                    <mxGeometry x="1400" y="1832" width="540" height="10" as="geometry"/>
                </mxCell>
                <mxCell id="71" value="" style="shape=loopLimit;whiteSpace=wrap;html=1;flipH=0;" parent="1" vertex="1">
                    <mxGeometry x="1792.5" y="1782" width="100" height="50" as="geometry"/>
                </mxCell>
                <mxCell id="73" value="" style="rounded=0;whiteSpace=wrap;html=1;flipH=0;" parent="1" vertex="1">
                    <mxGeometry x="1453.5" y="1802" width="300" height="30" as="geometry"/>
                </mxCell>
                <mxCell id="75" value="" style="rounded=0;whiteSpace=wrap;html=1;fillColor=default;flipH=0;" parent="1" vertex="1">
                    <mxGeometry x="1910" y="1742" width="30" height="90" as="geometry"/>
                </mxCell>
                <mxCell id="77" value="" style="endArrow=none;html=1;" parent="1" edge="1">
                    <mxGeometry width="50" height="50" relative="1" as="geometry">
                        <mxPoint x="1859.9999999999993" y="1730" as="sourcePoint"/>
                        <mxPoint x="1860" y="1741" as="targetPoint"/>
                    </mxGeometry>
                </mxCell>
                <mxCell id="80" value="" style="rounded=0;whiteSpace=wrap;html=1;fillColor=default;flipH=0;" parent="1" vertex="1">
                    <mxGeometry x="1400" y="1742" width="30" height="90" as="geometry"/>
                </mxCell>
                <mxCell id="86" value="" style="rounded=1;whiteSpace=wrap;html=1;fillColor=default;spacing=2;arcSize=5;flipH=0;" parent="1" vertex="1">
                    <mxGeometry x="1210" y="1300" width="320" height="210" as="geometry"/>
                </mxCell>
                <mxCell id="87" value="" style="rounded=1;whiteSpace=wrap;html=1;fillColor=default;spacing=2;arcSize=5;flipH=0;" parent="1" vertex="1">
                    <mxGeometry x="1210" y="1510" width="320" height="190" as="geometry"/>
                </mxCell>
                <mxCell id="89" value="" style="rounded=0;whiteSpace=wrap;html=1;" parent="1" vertex="1">
                    <mxGeometry x="1630" y="1650" width="300" height="10" as="geometry"/>
                </mxCell>
                <mxCell id="90" value="" style="rounded=1;whiteSpace=wrap;html=1;arcSize=3;" parent="1" vertex="1">
                    <mxGeometry x="1530" y="1290" width="500" height="310" as="geometry"/>
                </mxCell>
                <mxCell id="92" value="" style="endArrow=none;html=1;" parent="1" edge="1">
                    <mxGeometry width="50" height="50" relative="1" as="geometry">
                        <mxPoint x="1479.999999999999" y="1731" as="sourcePoint"/>
                        <mxPoint x="1480" y="1742" as="targetPoint"/>
                    </mxGeometry>
                </mxCell>
                <mxCell id="93" value="" style="rounded=1;whiteSpace=wrap;html=1;arcSize=4;" parent="1" vertex="1">
                    <mxGeometry x="1280" y="980" width="680" height="310" as="geometry"/>
                </mxCell>
                <mxCell id="94" value="" style="rounded=0;whiteSpace=wrap;html=1;" parent="1" vertex="1">
                    <mxGeometry x="1680" y="1630.5" width="200" height="19.5" as="geometry"/>
                </mxCell>
                <mxCell id="95" value="" style="rounded=0;whiteSpace=wrap;html=1;" parent="1" vertex="1">
                    <mxGeometry x="1630" y="1660" width="30" height="69" as="geometry"/>
                </mxCell>
                <mxCell id="96" value="" style="rounded=0;whiteSpace=wrap;html=1;" parent="1" vertex="1">
                    <mxGeometry x="1900" y="1661" width="30" height="69" as="geometry"/>
                </mxCell>
                <mxCell id="97" value="" style="rounded=0;whiteSpace=wrap;html=1;" parent="1" vertex="1">
                    <mxGeometry x="1756.75" y="1600" width="46.5" height="30" as="geometry"/>
                </mxCell>
                <mxCell id="101" value="" style="rounded=0;whiteSpace=wrap;html=1;fillColor=default;" parent="1" vertex="1">
                    <mxGeometry x="1453.5" y="3150" width="300" height="110" as="geometry"/>
                </mxCell>
                <mxCell id="105" value="" style="ellipse;whiteSpace=wrap;html=1;aspect=fixed;fillColor=default;" parent="1" vertex="1">
                    <mxGeometry x="1799" y="3150" width="101" height="101" as="geometry"/>
                </mxCell>
                <mxCell id="100" value="" style="rounded=0;whiteSpace=wrap;html=1;fillColor=default;" parent="1" vertex="1">
                    <mxGeometry x="1453.5" y="3260" width="300" height="70" as="geometry"/>
                </mxCell>
                <mxCell id="128" value="" style="rounded=0;whiteSpace=wrap;html=1;" parent="1" vertex="1">
                    <mxGeometry x="-30" y="1743" width="50" height="31.5" as="geometry"/>
                </mxCell>
                <mxCell id="126" value="" style="rounded=0;whiteSpace=wrap;html=1;fillColor=none;" parent="1" vertex="1">
                    <mxGeometry x="1480" y="3180" width="380" height="150" as="geometry"/>
                </mxCell>
                <mxCell id="135" value="" style="endArrow=none;html=1;" parent="1" edge="1">
                    <mxGeometry width="50" height="50" relative="1" as="geometry">
                        <mxPoint x="1480" y="3430" as="sourcePoint"/>
                        <mxPoint x="1480" y="3330" as="targetPoint"/>
                    </mxGeometry>
                </mxCell>
                <mxCell id="136" value="" style="endArrow=none;html=1;" parent="1" edge="1">
                    <mxGeometry width="50" height="50" relative="1" as="geometry">
                        <mxPoint x="1860" y="3430.000000000001" as="sourcePoint"/>
                        <mxPoint x="1860" y="3330" as="targetPoint"/>
                    </mxGeometry>
                </mxCell>
                <mxCell id="125" value="" style="rounded=0;whiteSpace=wrap;html=1;" parent="1" vertex="1">
                    <mxGeometry x="1270" y="2780" width="300" height="200" as="geometry"/>
                </mxCell>
            </root>
        </mxGraphModel>
    </diagram>
</mxfile>